<svg width="101" height="39" viewBox="0 0 101 39" fill="none" xmlns="http://www.w3.org/2000/svg">
<g filter="url(#filter0_d_556_228)">
<path d="M4.73135 9.14453H81.4041C84.7734 9.14453 87.3948 12.073 87.023 15.4218L84.6113 37.1445H6.68886C3.19024 37.1445 0.531542 33.9989 1.11446 30.5492L4.73135 9.14453Z" fill="url(#paint0_radial_556_228)"/>
<path d="M1.55817 30.6241L5.11169 9.59453H81.4041C84.5052 9.59453 86.9179 12.2899 86.5758 15.3721L84.2085 36.6945H6.68886C3.46872 36.6945 1.02165 33.7993 1.55817 30.6241Z" stroke="url(#paint1_linear_556_228)" stroke-width="0.9"/>
</g>
<path d="M10.0231 17.3871C12.2543 16.4012 14.1259 15.9083 15.6381 15.9083C17.1503 15.9083 18.2659 16.3123 18.9849 17.1202C19.7039 17.9282 19.9671 18.9919 19.7744 20.3114C19.6854 20.9637 19.4482 21.5975 19.0627 22.2127C18.5142 23.0948 17.3356 24.1882 15.5269 25.4928C13.7108 26.79 12.295 27.7388 11.2795 28.3392C12.3099 28.2799 13.0289 28.2503 13.4366 28.2503H18.9516L18.7069 30.0293H8.38859L8.58873 28.5282C9.21139 28.0761 10.0824 27.4571 11.2017 26.6714C12.321 25.8856 13.1771 25.2778 13.7701 24.8479C15.5566 23.5136 16.7315 22.4536 17.2948 21.6679C17.6432 21.1786 17.8471 20.7079 17.9064 20.2558C18.0102 19.4849 17.8545 18.8585 17.4394 18.3767C17.0243 17.8949 16.4276 17.6576 15.6492 17.6651C14.189 17.6651 12.4433 18.0653 10.4122 18.8659L10.0231 17.3871Z" fill="#2D1261"/>
<path d="M26.5652 21.705C26.5988 21.537 26.6156 21.4251 26.6156 21.3691L27.2427 16.9121H28.5641L27.5787 23.9055H26.3749L23.4018 19.1462C23.3943 19.2619 23.3756 19.4149 23.3458 19.6053L22.7355 23.9055H21.4197L22.4051 16.9121H23.6089L26.5652 21.705Z" fill="#2D1261"/>
<path d="M32.296 18.1159H31.2994L30.6555 22.7017H31.6745C32.477 22.7054 33.1153 22.5057 33.5894 22.1026C34.0634 21.6994 34.3546 21.1152 34.4628 20.35C34.5748 19.5848 34.4516 19.0211 34.0933 18.6591C33.735 18.297 33.1359 18.1159 32.296 18.1159ZM32.4192 16.9121C33.651 16.9121 34.5636 17.2201 35.1571 17.836C35.7506 18.4556 35.9709 19.3142 35.8178 20.4116C35.6648 21.509 35.2169 22.3657 34.474 22.9816C33.7312 23.5975 32.7607 23.9055 31.5625 23.9055H29.1549L30.1404 16.9121H32.4192Z" fill="#2D1261"/>
<path d="M41.5521 17.8318C42.916 16.5495 44.6098 15.9083 46.6334 15.9083C48.6645 15.9083 50.4843 16.2493 52.0928 16.9312L51.2478 18.6658C49.7875 18.1321 48.2753 17.8652 46.7112 17.8652C45.1546 17.8652 43.9056 18.3174 42.9642 19.2217C42.0228 20.126 41.4298 21.4158 41.1851 23.0911C40.9405 24.7663 41.137 26.0487 41.7744 26.9382C42.4193 27.8278 43.4237 28.2725 44.7877 28.2725C46.6112 28.2725 48.1196 27.9167 49.3131 27.2051L49.6577 24.7256H44.9878L45.2658 22.8131H51.9371L51.1588 28.3392C48.9424 29.5994 46.6964 30.2294 44.4207 30.2294C42.4342 30.2294 40.9628 29.6105 40.0065 28.3726C39.0503 27.1273 38.7279 25.3816 39.0392 23.1356C39.3505 20.8821 40.1881 19.1142 41.5521 17.8318ZM57.2466 18.0987L56.6796 22.0793H63.0285L62.7616 24.0362H56.4016L55.8345 28.0724H63.3287L63.0507 30.0293H53.4662L55.4231 16.1418H64.7853L64.5295 18.0987H57.2466ZM77.4888 30.0293H75.5764L69.1385 19.7109L67.7042 30.0293H65.6027L67.5596 16.1418H69.4721L75.8988 26.5046L77.3554 16.1418H79.4458L77.4888 30.0293Z" fill="#2D1261"/>
<g filter="url(#filter1_d_556_228)">
<path d="M93.1057 0L93.8258 1.78222C94.3876 3.17282 95.5847 4.26922 97.1031 4.78379L99.049 5.44327L97.1031 6.10275C95.5847 6.61732 94.3876 7.71372 93.8258 9.10432L93.1057 10.8865L92.3856 9.10432C91.8238 7.71372 90.6267 6.61732 89.1083 6.10275L87.1624 5.44327L89.1083 4.78379C90.6267 4.26922 91.8238 3.17282 92.3856 1.78222L93.1057 0Z" fill="url(#paint2_radial_556_228)"/>
</g>
<defs>
<filter id="filter0_d_556_228" x="1.03406" y="9.14453" width="86.9374" height="28.9132" filterUnits="userSpaceOnUse" color-interpolation-filters="sRGB">
<feFlood flood-opacity="0" result="BackgroundImageFix"/>
<feColorMatrix in="SourceAlpha" type="matrix" values="0 0 0 0 0 0 0 0 0 0 0 0 0 0 0 0 0 0 127 0" result="hardAlpha"/>
<feOffset dx="0.913219" dy="0.913219"/>
<feComposite in2="hardAlpha" operator="out"/>
<feColorMatrix type="matrix" values="0 0 0 0 0 0 0 0 0 0 0 0 0 0 0 0 0 0 1 0"/>
<feBlend mode="normal" in2="BackgroundImageFix" result="effect1_dropShadow_556_228"/>
<feBlend mode="normal" in="SourceGraphic" in2="effect1_dropShadow_556_228" result="shape"/>
</filter>
<filter id="filter1_d_556_228" x="87.1624" y="0" width="13.3867" height="12.3867" filterUnits="userSpaceOnUse" color-interpolation-filters="sRGB">
<feFlood flood-opacity="0" result="BackgroundImageFix"/>
<feColorMatrix in="SourceAlpha" type="matrix" values="0 0 0 0 0 0 0 0 0 0 0 0 0 0 0 0 0 0 127 0" result="hardAlpha"/>
<feOffset dx="1.5" dy="1.5"/>
<feComposite in2="hardAlpha" operator="out"/>
<feColorMatrix type="matrix" values="0 0 0 0 0 0 0 0 0 0 0 0 0 0 0 0 0 0 1 0"/>
<feBlend mode="normal" in2="BackgroundImageFix" result="effect1_dropShadow_556_228"/>
<feBlend mode="normal" in="SourceGraphic" in2="effect1_dropShadow_556_228" result="shape"/>
</filter>
<radialGradient id="paint0_radial_556_228" cx="0" cy="0" r="1" gradientUnits="userSpaceOnUse" gradientTransform="translate(93.311 36.9905) rotate(-159.715) scale(92.4049 284.059)">
<stop stop-color="#CCB7F7"/>
<stop offset="0.520828" stop-color="#F2ECFF"/>
<stop offset="1" stop-color="#CCBDEB"/>
</radialGradient>
<linearGradient id="paint1_linear_556_228" x1="43.86" y1="9.14453" x2="43.86" y2="37.1445" gradientUnits="userSpaceOnUse">
<stop stop-color="#CCB5FF"/>
<stop offset="1" stop-color="#1D0A4D"/>
</linearGradient>
<radialGradient id="paint2_radial_556_228" cx="0" cy="0" r="1" gradientUnits="userSpaceOnUse" gradientTransform="translate(99.8067 10.8267) rotate(-133.317) scale(17.12 80.7785)">
<stop stop-color="#6D5E8B"/>
<stop offset="0.520828" stop-color="#F2ECFF"/>
<stop offset="1" stop-color="#6D5E8B"/>
</radialGradient>
</defs>
</svg>
